<?plantuml 1.2026.2beta3?><svg xmlns="http://www.w3.org/2000/svg" xmlns:xlink="http://www.w3.org/1999/xlink" contentStyleType="text/css" data-diagram-type="ACTIVITY" height="949px" preserveAspectRatio="none" style="width:1084px;height:949px;background:#FFFFFF;" version="1.1" viewBox="0 0 1084 949" width="1084px" zoomAndPan="magnify"><title>Flujo actual (AS-IS) - Solicitudes a TI (sin canal &#250;nico)</title><defs/><g><g class="title" data-source-line="1"><text fill="#000000" font-family="sans-serif" font-size="14" font-weight="bold" lengthAdjust="spacing" textLength="423.5068" x="329.0813" y="32.9951">Flujo actual (AS-IS) - Solicitudes a TI (sin canal &#250;nico)</text></g><ellipse cx="466.0693" cy="57.2969" fill="#222222" rx="10" ry="10" style="stroke:#222222;stroke-width:1;"/><rect fill="#F1F1F1" height="33.9688" rx="12.5" ry="12.5" style="stroke:#181818;stroke-width:0.5;" width="333.5762" x="299.2813" y="87.2969"/><text fill="#000000" font-family="sans-serif" font-size="12" lengthAdjust="spacing" textLength="313.5762" x="309.2813" y="108.4355">Usuario identifica necesidad / incidente / solicitud TI</text><polygon fill="#F1F1F1" points="57.9919,141.2656,176.6233,141.2656,188.6233,153.2656,176.6233,165.2656,57.9919,165.2656,45.9919,153.2656,57.9919,141.2656" style="stroke:#181818;stroke-width:0.5;"/><text fill="#000000" font-family="sans-serif" font-size="11" lengthAdjust="spacing" textLength="47.1045" x="121.3076" y="175.4761">Llamada</text><text fill="#000000" font-family="sans-serif" font-size="11" lengthAdjust="spacing" textLength="118.6313" x="57.9919" y="157.0737">&#191;C&#243;mo contacta a TI?</text><rect fill="#F1F1F1" height="33.9688" rx="12.5" ry="12.5" style="stroke:#181818;stroke-width:0.5;" width="212.6152" x="11" y="198.0703"/><text fill="#000000" font-family="sans-serif" font-size="12" lengthAdjust="spacing" textLength="192.6152" x="21" y="219.209">Llamada telef&#243;nica a persona TI</text><polygon fill="#F1F1F1" points="292.1355,141.2656,388.6379,141.2656,400.6379,153.2656,388.6379,165.2656,292.1355,165.2656,280.1355,153.2656,292.1355,141.2656" style="stroke:#181818;stroke-width:0.5;"/><text fill="#000000" font-family="sans-serif" font-size="11" lengthAdjust="spacing" textLength="96.5024" x="292.1355" y="157.0737">WhatsApp/Teams</text><rect fill="#F1F1F1" height="33.9688" rx="12.5" ry="12.5" style="stroke:#181818;stroke-width:0.5;" width="193.543" x="243.6152" y="185.2656"/><text fill="#000000" font-family="sans-serif" font-size="12" lengthAdjust="spacing" textLength="173.543" x="253.6152" y="206.4043">Mensaje directo a persona TI</text><polygon fill="#F1F1F1" points="510.2322,141.2656,598.1838,141.2656,610.1838,153.2656,598.1838,165.2656,510.2322,165.2656,498.2322,153.2656,510.2322,141.2656" style="stroke:#181818;stroke-width:0.5;"/><text fill="#000000" font-family="sans-serif" font-size="11" lengthAdjust="spacing" textLength="87.9517" x="510.2322" y="157.0737">Correo personal</text><text fill="#000000" font-family="sans-serif" font-size="11" lengthAdjust="spacing" textLength="22.9775" x="610.1838" y="150.6714">Oral</text><rect fill="#F1F1F1" height="33.9688" rx="12.5" ry="12.5" style="stroke:#181818;stroke-width:0.5;" width="194.0996" x="457.1582" y="185.2656"/><text fill="#000000" font-family="sans-serif" font-size="12" lengthAdjust="spacing" textLength="174.0996" x="467.1582" y="206.4043">Correo personal a persona TI</text><rect fill="#F1F1F1" height="33.9688" rx="12.5" ry="12.5" style="stroke:#181818;stroke-width:0.5;" width="249.8809" x="671.2578" y="194.668"/><text fill="#000000" font-family="sans-serif" font-size="12" lengthAdjust="spacing" textLength="229.8809" x="681.2578" y="215.8066">Solicitud oral / presencial a persona TI</text><rect fill="#F1F1F1" height="33.9688" rx="12.5" ry="12.5" style="stroke:#181818;stroke-width:0.5;" width="289.5488" x="321.2949" y="272.0391"/><text fill="#000000" font-family="sans-serif" font-size="12" lengthAdjust="spacing" textLength="269.5488" x="331.2949" y="293.1777">Gesti&#243;n directa con la persona TI contactada</text><polygon fill="#F1F1F1" points="352.3821,326.0078,579.7566,326.0078,591.7566,338.0078,579.7566,350.0078,352.3821,350.0078,340.3821,338.0078,352.3821,326.0078" style="stroke:#181818;stroke-width:0.5;"/><text fill="#000000" font-family="sans-serif" font-size="11" lengthAdjust="spacing" textLength="227.3745" x="352.3821" y="341.8159">&#191;Se registra formalmente en plataforma?</text><text fill="#000000" font-family="sans-serif" font-size="11" lengthAdjust="spacing" textLength="10.0386" x="330.3435" y="335.4136">S&#237;</text><text fill="#000000" font-family="sans-serif" font-size="11" lengthAdjust="spacing" textLength="78.9229" x="591.7566" y="335.4136">No - frecuente</text><path d="M299.7305,360.0078 L299.7305,383.707 L279.7305,387.707 L299.7305,391.707 L299.7305,415.4063 A0,0 0 0 0 299.7305,415.4063 L612.126,415.4063 A0,0 0 0 0 612.126,415.4063 L612.126,370.0078 L602.126,360.0078 L299.7305,360.0078 A0,0 0 0 0 299.7305,360.0078" fill="#FEFFDD" style="stroke:#181818;stroke-width:0.5;"/><path d="M602.126,360.0078 L602.126,370.0078 L612.126,370.0078 L602.126,360.0078" fill="#FEFFDD" style="stroke:#181818;stroke-width:0.5;"/><text fill="#000000" font-family="sans-serif" font-size="13" lengthAdjust="spacing" textLength="85.7949" x="305.7305" y="377.0747">Punto cr&#237;tico:</text><text fill="#000000" font-family="sans-serif" font-size="13" lengthAdjust="spacing" textLength="283.1309" x="313.9951" y="392.2075">- No se realiza proceso formal por helpdesk</text><text fill="#000000" font-family="sans-serif" font-size="13" lengthAdjust="spacing" textLength="135.4209" x="313.9951" y="407.3403">- No hay trazabilidad</text><rect fill="#F1F1F1" height="33.9688" rx="12.5" ry="12.5" style="stroke:#181818;stroke-width:0.5;" width="136.8301" x="142.9004" y="370.7227"/><text fill="#000000" font-family="sans-serif" font-size="12" lengthAdjust="spacing" textLength="116.8301" x="152.9004" y="391.8613">Proceso sin realizar</text><path d="M829.5205,360.0078 L829.5205,383.707 L809.5205,387.707 L829.5205,391.707 L829.5205,415.4063 A0,0 0 0 0 829.5205,415.4063 L1072.6694,415.4063 A0,0 0 0 0 1072.6694,415.4063 L1072.6694,370.0078 L1062.6694,360.0078 L829.5205,360.0078 A0,0 0 0 0 829.5205,360.0078" fill="#FEFFDD" style="stroke:#181818;stroke-width:0.5;"/><path d="M1062.6694,360.0078 L1062.6694,370.0078 L1072.6694,370.0078 L1062.6694,360.0078" fill="#FEFFDD" style="stroke:#181818;stroke-width:0.5;"/><text fill="#000000" font-family="sans-serif" font-size="13" lengthAdjust="spacing" textLength="85.7949" x="835.5205" y="377.0747">Punto cr&#237;tico:</text><text fill="#000000" font-family="sans-serif" font-size="13" lengthAdjust="spacing" textLength="200.2432" x="835.5205" y="392.2075">- No hay trazabilidad completa</text><text fill="#000000" font-family="sans-serif" font-size="13" lengthAdjust="spacing" textLength="222.1489" x="835.5205" y="407.3403">- No queda evidencia centralizada</text><rect fill="#F1F1F1" height="33.9688" rx="12.5" ry="12.5" style="stroke:#181818;stroke-width:0.5;" width="177.3945" x="632.126" y="370.7227"/><text fill="#000000" font-family="sans-serif" font-size="12" lengthAdjust="spacing" textLength="157.3945" x="642.126" y="391.8613">Sin registro en plataforma</text><polygon fill="#F1F1F1" points="466.0693,421.4063,478.0693,433.4063,466.0693,445.4063,454.0693,433.4063,466.0693,421.4063" style="stroke:#181818;stroke-width:0.5;"/><polygon fill="#F1F1F1" points="424.1587,465.4063,507.98,465.4063,519.98,477.4063,507.98,489.4063,424.1587,489.4063,412.1587,477.4063,424.1587,465.4063" style="stroke:#181818;stroke-width:0.5;"/><text fill="#000000" font-family="sans-serif" font-size="11" lengthAdjust="spacing" textLength="83.8213" x="424.1587" y="481.2144">&#191;Qui&#233;n asigna?</text><text fill="#000000" font-family="sans-serif" font-size="11" lengthAdjust="spacing" textLength="136.27" x="275.8887" y="474.812">Personal interno/externo</text><text fill="#000000" font-family="sans-serif" font-size="11" lengthAdjust="spacing" textLength="62.874" x="519.98" y="474.812">No definido</text><path d="M350.5854,499.4063 L350.5854,523.1055 L330.5854,527.1055 L350.5854,531.1055 L350.5854,554.8047 A0,0 0 0 0 350.5854,554.8047 L595.645,554.8047 A0,0 0 0 0 595.645,554.8047 L595.645,509.4063 L585.645,499.4063 L350.5854,499.4063 A0,0 0 0 0 350.5854,499.4063" fill="#FEFFDD" style="stroke:#181818;stroke-width:0.5;"/><path d="M585.645,499.4063 L585.645,509.4063 L595.645,509.4063 L585.645,499.4063" fill="#FEFFDD" style="stroke:#181818;stroke-width:0.5;"/><text fill="#000000" font-family="sans-serif" font-size="13" lengthAdjust="spacing" textLength="179.207" x="356.5854" y="516.4731">Dependencia por personas:</text><text fill="#000000" font-family="sans-serif" font-size="13" lengthAdjust="spacing" textLength="129.0479" x="356.5854" y="531.606">- No depende de rol</text><text fill="#000000" font-family="sans-serif" font-size="13" lengthAdjust="spacing" textLength="224.0596" x="356.5854" y="546.7388">- No depende de nivel de atenci&#243;n</text><rect fill="#F1F1F1" height="33.9688" rx="12.5" ry="12.5" style="stroke:#181818;stroke-width:0.5;" width="298.332" x="32.2534" y="510.1211"/><text fill="#000000" font-family="sans-serif" font-size="12" lengthAdjust="spacing" textLength="278.332" x="42.2534" y="531.2598">Asignaci&#243;n depende de la persona contactada</text><rect fill="#F1F1F1" height="33.9688" rx="12.5" ry="12.5" style="stroke:#181818;stroke-width:0.5;" width="270.1484" x="615.645" y="499.4063"/><text fill="#000000" font-family="sans-serif" font-size="12" lengthAdjust="spacing" textLength="250.1484" x="625.645" y="520.5449">Queda "en el aire" / seguimiento informal</text><polygon fill="#F1F1F1" points="466.0693,560.8047,478.0693,572.8047,466.0693,584.8047,454.0693,572.8047,466.0693,560.8047" style="stroke:#181818;stroke-width:0.5;"/><polygon fill="#F1F1F1" points="372.6633,604.8047,559.4753,604.8047,571.4753,616.8047,559.4753,628.8047,372.6633,628.8047,360.6633,616.8047,372.6633,604.8047" style="stroke:#181818;stroke-width:0.5;"/><text fill="#000000" font-family="sans-serif" font-size="11" lengthAdjust="spacing" textLength="186.812" x="372.6633" y="620.6128">&#191;Existe priorizaci&#243;n estructurada?</text><text fill="#000000" font-family="sans-serif" font-size="11" lengthAdjust="spacing" textLength="10.0386" x="350.6248" y="614.2104">S&#237;</text><text fill="#000000" font-family="sans-serif" font-size="11" lengthAdjust="spacing" textLength="14.9585" x="571.4753" y="614.2104">No</text><rect fill="#F1F1F1" height="33.9688" rx="12.5" ry="12.5" style="stroke:#181818;stroke-width:0.5;" width="234.6758" x="200.3804" y="638.8047"/><text fill="#000000" font-family="sans-serif" font-size="12" lengthAdjust="spacing" textLength="214.6758" x="210.3804" y="659.9434">Prioriza y agenda (casos puntuales)</text><path d="M793.7847,638.8047 L793.7847,662.5039 L773.7847,666.5039 L793.7847,670.5039 L793.7847,694.2031 A0,0 0 0 0 793.7847,694.2031 L1036.9209,694.2031 A0,0 0 0 0 1036.9209,694.2031 L1036.9209,648.8047 L1026.9209,638.8047 L793.7847,638.8047 A0,0 0 0 0 793.7847,638.8047" fill="#FEFFDD" style="stroke:#181818;stroke-width:0.5;"/><path d="M1026.9209,638.8047 L1026.9209,648.8047 L1036.9209,648.8047 L1026.9209,638.8047" fill="#FEFFDD" style="stroke:#181818;stroke-width:0.5;"/><text fill="#000000" font-family="sans-serif" font-size="13" lengthAdjust="spacing" textLength="85.7949" x="799.7847" y="655.8716">Punto cr&#237;tico:</text><text fill="#000000" font-family="sans-serif" font-size="13" lengthAdjust="spacing" textLength="152.7437" x="799.7847" y="671.0044">- No priorizaci&#243;n formal</text><text fill="#000000" font-family="sans-serif" font-size="13" lengthAdjust="spacing" textLength="222.1362" x="799.7847" y="686.1372">- Riesgo de inequidad en atenci&#243;n</text><rect fill="#F1F1F1" height="33.9688" rx="12.5" ry="12.5" style="stroke:#181818;stroke-width:0.5;" width="318.7285" x="455.0562" y="649.5195"/><text fill="#000000" font-family="sans-serif" font-size="12" lengthAdjust="spacing" textLength="298.7285" x="465.0562" y="670.6582">Se atiende por urgencia percibida / disponibilidad</text><polygon fill="#F1F1F1" points="466.0693,700.2031,478.0693,712.2031,466.0693,724.2031,454.0693,712.2031,466.0693,700.2031" style="stroke:#181818;stroke-width:0.5;"/><rect fill="#F1F1F1" height="33.9688" rx="12.5" ry="12.5" style="stroke:#181818;stroke-width:0.5;" width="262.2734" x="334.9326" y="744.2031"/><text fill="#000000" font-family="sans-serif" font-size="12" lengthAdjust="spacing" textLength="242.2734" x="344.9326" y="765.3418">Atenci&#243;n / soluci&#243;n (con o sin evidencia)</text><polygon fill="#F1F1F1" points="387.8098,798.1719,544.3289,798.1719,556.3289,810.1719,544.3289,822.1719,387.8098,822.1719,375.8098,810.1719,387.8098,798.1719" style="stroke:#181818;stroke-width:0.5;"/><text fill="#000000" font-family="sans-serif" font-size="11" lengthAdjust="spacing" textLength="156.519" x="387.8098" y="813.98">&#191;Se comunica cierre formal?</text><text fill="#000000" font-family="sans-serif" font-size="11" lengthAdjust="spacing" textLength="10.0386" x="365.7712" y="807.5776">S&#237;</text><text fill="#000000" font-family="sans-serif" font-size="11" lengthAdjust="spacing" textLength="14.9585" x="556.3289" y="807.5776">No</text><rect fill="#F1F1F1" height="33.9688" rx="12.5" ry="12.5" style="stroke:#181818;stroke-width:0.5;" width="242.0938" x="222.019" y="832.1719"/><text fill="#000000" font-family="sans-serif" font-size="12" lengthAdjust="spacing" textLength="222.0938" x="232.019" y="853.3105">Se informa cierre por el mismo canal</text><rect fill="#F1F1F1" height="33.9688" rx="12.5" ry="12.5" style="stroke:#181818;stroke-width:0.5;" width="209.9199" x="484.1128" y="832.1719"/><text fill="#000000" font-family="sans-serif" font-size="12" lengthAdjust="spacing" textLength="189.9199" x="494.1128" y="853.3105">Cierre impl&#237;cito / no confirmado</text><polygon fill="#F1F1F1" points="466.0693,872.1406,478.0693,884.1406,466.0693,896.1406,454.0693,884.1406,466.0693,872.1406" style="stroke:#181818;stroke-width:0.5;"/><ellipse cx="466.0693" cy="927.1406" fill="none" rx="11" ry="11" style="stroke:#222222;stroke-width:1;"/><ellipse cx="466.0693" cy="927.1406" fill="#222222" rx="6" ry="6" style="stroke:#222222;stroke-width:1;"/><line style="stroke:#181818;stroke-width:1;" x1="466.0693" x2="466.0693" y1="67.2969" y2="87.2969"/><polygon fill="#181818" points="462.0693,77.2969,466.0693,87.2969,470.0693,77.2969,466.0693,81.2969" style="stroke:#181818;stroke-width:1;"/><line style="stroke:#181818;stroke-width:1;" x1="117.3076" x2="117.3076" y1="165.2656" y2="198.0703"/><polygon fill="#181818" points="113.3076,188.0703,117.3076,198.0703,121.3076,188.0703,117.3076,192.0703" style="stroke:#181818;stroke-width:1;"/><line style="stroke:#181818;stroke-width:1;" x1="117.3076" x2="117.3076" y1="232.0391" y2="252.0391"/><polygon fill="#181818" points="113.3076,242.0391,117.3076,252.0391,121.3076,242.0391,117.3076,246.0391" style="stroke:#181818;stroke-width:1;"/><line style="stroke:#181818;stroke-width:1;" x1="340.3867" x2="340.3867" y1="165.2656" y2="185.2656"/><polygon fill="#181818" points="336.3867,175.2656,340.3867,185.2656,344.3867,175.2656,340.3867,179.2656" style="stroke:#181818;stroke-width:1;"/><line style="stroke:#181818;stroke-width:1;" x1="340.3867" x2="340.3867" y1="219.2344" y2="252.0391"/><polygon fill="#181818" points="336.3867,242.0391,340.3867,252.0391,344.3867,242.0391,340.3867,246.0391" style="stroke:#181818;stroke-width:1;"/><line style="stroke:#181818;stroke-width:1;" x1="554.208" x2="554.208" y1="165.2656" y2="185.2656"/><polygon fill="#181818" points="550.208,175.2656,554.208,185.2656,558.208,175.2656,554.208,179.2656" style="stroke:#181818;stroke-width:1;"/><line style="stroke:#181818;stroke-width:1;" x1="554.208" x2="554.208" y1="219.2344" y2="252.0391"/><polygon fill="#181818" points="550.208,242.0391,554.208,252.0391,558.208,242.0391,554.208,246.0391" style="stroke:#181818;stroke-width:1;"/><line style="stroke:#181818;stroke-width:1;" x1="188.6233" x2="280.1355" y1="153.2656" y2="153.2656"/><polygon fill="#181818" points="270.1355,149.2656,280.1355,153.2656,270.1355,157.2656,274.1355,153.2656" style="stroke:#181818;stroke-width:1;"/><line style="stroke:#181818;stroke-width:1;" x1="400.6379" x2="498.2322" y1="153.2656" y2="153.2656"/><polygon fill="#181818" points="488.2322,149.2656,498.2322,153.2656,488.2322,157.2656,492.2322,153.2656" style="stroke:#181818;stroke-width:1;"/><line style="stroke:#181818;stroke-width:1;" x1="466.0693" x2="466.0693" y1="121.2656" y2="126.2656"/><line style="stroke:#181818;stroke-width:1;" x1="466.0693" x2="117.3076" y1="126.2656" y2="126.2656"/><line style="stroke:#181818;stroke-width:1;" x1="117.3076" x2="117.3076" y1="126.2656" y2="141.2656"/><polygon fill="#181818" points="113.3076,131.2656,117.3076,141.2656,121.3076,131.2656,117.3076,135.2656" style="stroke:#181818;stroke-width:1;"/><line style="stroke:#181818;stroke-width:1;" x1="610.1838" x2="796.1982" y1="153.2656" y2="153.2656"/><line style="stroke:#181818;stroke-width:1;" x1="796.1982" x2="796.1982" y1="153.2656" y2="194.668"/><polygon fill="#181818" points="792.1982,184.668,796.1982,194.668,800.1982,184.668,796.1982,188.668" style="stroke:#181818;stroke-width:1;"/><line style="stroke:#181818;stroke-width:1;" x1="796.1982" x2="796.1982" y1="228.6367" y2="252.0391"/><polygon fill="#181818" points="792.1982,242.0391,796.1982,252.0391,800.1982,242.0391,796.1982,246.0391" style="stroke:#181818;stroke-width:1;"/><line style="stroke:#181818;stroke-width:1;" x1="117.3076" x2="796.1982" y1="252.0391" y2="252.0391"/><line style="stroke:#181818;stroke-width:1;" x1="466.0693" x2="466.0693" y1="252.0391" y2="272.0391"/><polygon fill="#181818" points="462.0693,262.0391,466.0693,272.0391,470.0693,262.0391,466.0693,266.0391" style="stroke:#181818;stroke-width:1;"/><line style="stroke:#181818;stroke-width:1;" x1="340.3821" x2="211.3154" y1="338.0078" y2="338.0078"/><line style="stroke:#181818;stroke-width:1;" x1="211.3154" x2="211.3154" y1="338.0078" y2="370.7227"/><polygon fill="#181818" points="207.3154,360.7227,211.3154,370.7227,215.3154,360.7227,211.3154,364.7227" style="stroke:#181818;stroke-width:1;"/><line style="stroke:#181818;stroke-width:1;" x1="591.7566" x2="720.8232" y1="338.0078" y2="338.0078"/><line style="stroke:#181818;stroke-width:1;" x1="720.8232" x2="720.8232" y1="338.0078" y2="370.7227"/><polygon fill="#181818" points="716.8232,360.7227,720.8232,370.7227,724.8232,360.7227,720.8232,364.7227" style="stroke:#181818;stroke-width:1;"/><line style="stroke:#181818;stroke-width:1;" x1="211.3154" x2="211.3154" y1="404.6914" y2="433.4063"/><line style="stroke:#181818;stroke-width:1;" x1="211.3154" x2="454.0693" y1="433.4063" y2="433.4063"/><polygon fill="#181818" points="444.0693,429.4063,454.0693,433.4063,444.0693,437.4063,448.0693,433.4063" style="stroke:#181818;stroke-width:1;"/><line style="stroke:#181818;stroke-width:1;" x1="720.8232" x2="720.8232" y1="404.6914" y2="433.4063"/><line style="stroke:#181818;stroke-width:1;" x1="720.8232" x2="478.0693" y1="433.4063" y2="433.4063"/><polygon fill="#181818" points="488.0693,429.4063,478.0693,433.4063,488.0693,437.4063,484.0693,433.4063" style="stroke:#181818;stroke-width:1;"/><line style="stroke:#181818;stroke-width:1;" x1="466.0693" x2="466.0693" y1="306.0078" y2="326.0078"/><polygon fill="#181818" points="462.0693,316.0078,466.0693,326.0078,470.0693,316.0078,466.0693,320.0078" style="stroke:#181818;stroke-width:1;"/><line style="stroke:#181818;stroke-width:1;" x1="412.1587" x2="181.4194" y1="477.4063" y2="477.4063"/><line style="stroke:#181818;stroke-width:1;" x1="181.4194" x2="181.4194" y1="477.4063" y2="510.1211"/><polygon fill="#181818" points="177.4194,500.1211,181.4194,510.1211,185.4194,500.1211,181.4194,504.1211" style="stroke:#181818;stroke-width:1;"/><line style="stroke:#181818;stroke-width:1;" x1="519.98" x2="750.7192" y1="477.4063" y2="477.4063"/><line style="stroke:#181818;stroke-width:1;" x1="750.7192" x2="750.7192" y1="477.4063" y2="499.4063"/><polygon fill="#181818" points="746.7192,489.4063,750.7192,499.4063,754.7192,489.4063,750.7192,493.4063" style="stroke:#181818;stroke-width:1;"/><line style="stroke:#181818;stroke-width:1;" x1="181.4194" x2="181.4194" y1="544.0898" y2="572.8047"/><line style="stroke:#181818;stroke-width:1;" x1="181.4194" x2="454.0693" y1="572.8047" y2="572.8047"/><polygon fill="#181818" points="444.0693,568.8047,454.0693,572.8047,444.0693,576.8047,448.0693,572.8047" style="stroke:#181818;stroke-width:1;"/><line style="stroke:#181818;stroke-width:1;" x1="750.7192" x2="750.7192" y1="533.375" y2="572.8047"/><line style="stroke:#181818;stroke-width:1;" x1="750.7192" x2="478.0693" y1="572.8047" y2="572.8047"/><polygon fill="#181818" points="488.0693,568.8047,478.0693,572.8047,488.0693,576.8047,484.0693,572.8047" style="stroke:#181818;stroke-width:1;"/><line style="stroke:#181818;stroke-width:1;" x1="466.0693" x2="466.0693" y1="445.4063" y2="465.4063"/><polygon fill="#181818" points="462.0693,455.4063,466.0693,465.4063,470.0693,455.4063,466.0693,459.4063" style="stroke:#181818;stroke-width:1;"/><line style="stroke:#181818;stroke-width:1;" x1="360.6633" x2="317.7183" y1="616.8047" y2="616.8047"/><line style="stroke:#181818;stroke-width:1;" x1="317.7183" x2="317.7183" y1="616.8047" y2="638.8047"/><polygon fill="#181818" points="313.7183,628.8047,317.7183,638.8047,321.7183,628.8047,317.7183,632.8047" style="stroke:#181818;stroke-width:1;"/><line style="stroke:#181818;stroke-width:1;" x1="571.4753" x2="614.4204" y1="616.8047" y2="616.8047"/><line style="stroke:#181818;stroke-width:1;" x1="614.4204" x2="614.4204" y1="616.8047" y2="649.5195"/><polygon fill="#181818" points="610.4204,639.5195,614.4204,649.5195,618.4204,639.5195,614.4204,643.5195" style="stroke:#181818;stroke-width:1;"/><line style="stroke:#181818;stroke-width:1;" x1="317.7183" x2="317.7183" y1="672.7734" y2="712.2031"/><line style="stroke:#181818;stroke-width:1;" x1="317.7183" x2="454.0693" y1="712.2031" y2="712.2031"/><polygon fill="#181818" points="444.0693,708.2031,454.0693,712.2031,444.0693,716.2031,448.0693,712.2031" style="stroke:#181818;stroke-width:1;"/><line style="stroke:#181818;stroke-width:1;" x1="614.4204" x2="614.4204" y1="683.4883" y2="712.2031"/><line style="stroke:#181818;stroke-width:1;" x1="614.4204" x2="478.0693" y1="712.2031" y2="712.2031"/><polygon fill="#181818" points="488.0693,708.2031,478.0693,712.2031,488.0693,716.2031,484.0693,712.2031" style="stroke:#181818;stroke-width:1;"/><line style="stroke:#181818;stroke-width:1;" x1="466.0693" x2="466.0693" y1="584.8047" y2="604.8047"/><polygon fill="#181818" points="462.0693,594.8047,466.0693,604.8047,470.0693,594.8047,466.0693,598.8047" style="stroke:#181818;stroke-width:1;"/><line style="stroke:#181818;stroke-width:1;" x1="466.0693" x2="466.0693" y1="724.2031" y2="744.2031"/><polygon fill="#181818" points="462.0693,734.2031,466.0693,744.2031,470.0693,734.2031,466.0693,738.2031" style="stroke:#181818;stroke-width:1;"/><line style="stroke:#181818;stroke-width:1;" x1="375.8098" x2="343.0659" y1="810.1719" y2="810.1719"/><line style="stroke:#181818;stroke-width:1;" x1="343.0659" x2="343.0659" y1="810.1719" y2="832.1719"/><polygon fill="#181818" points="339.0659,822.1719,343.0659,832.1719,347.0659,822.1719,343.0659,826.1719" style="stroke:#181818;stroke-width:1;"/><line style="stroke:#181818;stroke-width:1;" x1="556.3289" x2="589.0728" y1="810.1719" y2="810.1719"/><line style="stroke:#181818;stroke-width:1;" x1="589.0728" x2="589.0728" y1="810.1719" y2="832.1719"/><polygon fill="#181818" points="585.0728,822.1719,589.0728,832.1719,593.0728,822.1719,589.0728,826.1719" style="stroke:#181818;stroke-width:1;"/><line style="stroke:#181818;stroke-width:1;" x1="343.0659" x2="343.0659" y1="866.1406" y2="884.1406"/><line style="stroke:#181818;stroke-width:1;" x1="343.0659" x2="454.0693" y1="884.1406" y2="884.1406"/><polygon fill="#181818" points="444.0693,880.1406,454.0693,884.1406,444.0693,888.1406,448.0693,884.1406" style="stroke:#181818;stroke-width:1;"/><line style="stroke:#181818;stroke-width:1;" x1="589.0728" x2="589.0728" y1="866.1406" y2="884.1406"/><line style="stroke:#181818;stroke-width:1;" x1="589.0728" x2="478.0693" y1="884.1406" y2="884.1406"/><polygon fill="#181818" points="488.0693,880.1406,478.0693,884.1406,488.0693,888.1406,484.0693,884.1406" style="stroke:#181818;stroke-width:1;"/><line style="stroke:#181818;stroke-width:1;" x1="466.0693" x2="466.0693" y1="778.1719" y2="798.1719"/><polygon fill="#181818" points="462.0693,788.1719,466.0693,798.1719,470.0693,788.1719,466.0693,792.1719" style="stroke:#181818;stroke-width:1;"/><line style="stroke:#181818;stroke-width:1;" x1="466.0693" x2="466.0693" y1="896.1406" y2="916.1406"/><polygon fill="#181818" points="462.0693,906.1406,466.0693,916.1406,470.0693,906.1406,466.0693,910.1406" style="stroke:#181818;stroke-width:1;"/><?plantuml-src bLGxRzim4DxrAmwTv2787W-5aJuGe8-aJj7vGftaIobI8QaWoJ_ga2bRbmBL7-kHb1GxTWjqiapU7RyN6JXeWdUwlxQ0AlIeeLojZyxM2pY2jTMiEFGLUK2uF8FIim65Hgg6duQLNHI53-X2KPnyzJqwji0LcS0rAmH3YZnNMC4ni55fX-JRJtDbvh8ek8Rozw_JuQcreAm9WWFJUQyN43PaeFoWiSKA5mN0oVWDWJJLmvE91o5qvBmrc0QIzXHdVjjWyAkkExuaR7rg_aZ6upL1nOvKi7zfFBNEaPssTEfyiNQW4yhFRYoUXGChIyAuS-H95DXlD1NNejvxye65pOWCen2WjsjdQIgSDLiJE6hO1uTGMzUYRfF4ebcdCM1QcrLS3uy9tRcpuek5QAOZrFo0RYaRnaghusOJvCzvRqGVvOR783wVo0f88Zv95qrDmYeFoaT3PnriI7SIb-_FzHky1y7tW5UiOnPaHqYdmqRPfEW8Qg7TH_1Pm0GjCRExRFQ0_WFgowD5mhRJ5F2vvAOdoHBTncoAFQ04WaliAjn1cdtAib_qFFmmW9uRyopl-HGD5XREs6EwIx-9q2hLgcmnTJ9EGaZR3c_RkqVnJMv94AFCOvFV8hirrLbzSDtmBUduWI6E4Ym7pQYePiDL1dwH17eb1AKL9PoluWMcfkUMAUhE9jk_tDNexPsOHn8HjaxKpCmbvAwNLyO9omEnpALm3zZ8B8HIeRSUEl5N7YRoY-KCCgSaCk74BehIksPKY9pYAt5Se5RiEsjuJC3_f6SNUYOvxdvXyaqKIjZJJP-o9LGEophUyDMqcH_0Fd-NyPxdgpY7SB5zloMoVNhZ59EyG2EEFV7MD1an5KP5nBAMVNnMuvlzGhtJNCTo9OP7UQsi03Ff1QvPvbHsTjG7s_q1?></g></svg>