<?plantuml 1.2026.2beta3?><svg xmlns="http://www.w3.org/2000/svg" xmlns:xlink="http://www.w3.org/1999/xlink" contentStyleType="text/css" data-diagram-type="ACTIVITY" height="1293.75px" preserveAspectRatio="none" style="width:2762px;height:1293px;background:#FFFFFF;" version="1.1" viewBox="0 0 2762 1293" width="2762.5px" zoomAndPan="magnify"><title>Flujo AS-IS - Solicitudes Externas</title><defs/><g><g class="title" data-source-line="1"><text fill="#000000" font-family="sans-serif" font-size="21.875" font-weight="bold" lengthAdjust="spacing" textLength="410.0174" x="1174.5682" y="51.5549">Flujo AS-IS - Solicitudes Externas</text></g><rect fill="none" height="32.7393" style="stroke:none;stroke-width:1.5625;" width="2712.2787" x="23.4375" y="78.1906"/><ellipse cx="247.6013" cy="134.3674" fill="#222222" rx="15.625" ry="15.625" style="stroke:#222222;stroke-width:1.5625;"/><rect fill="#F1F1F1" height="53.0762" rx="19.5313" ry="19.5313" style="stroke:#181818;stroke-width:0.7813;" width="429.5776" x="32.8125" y="181.2424"/><text fill="#000000" font-family="sans-serif" font-size="18.75" lengthAdjust="spacing" textLength="398.3276" x="48.4375" y="214.2715">Registra solicitud en plataforma de tickets</text><rect fill="#F1F1F1" height="53.0762" rx="19.5313" ry="19.5313" style="stroke:#181818;stroke-width:0.7813;" width="298.4924" x="98.3551" y="1157.3593"/><text fill="#000000" font-family="sans-serif" font-size="18.75" lengthAdjust="spacing" textLength="267.2424" x="113.9801" y="1190.3885">Recibe notificaci&#243;n de cierre</text><ellipse cx="247.6013" cy="1258.873" fill="none" rx="17.1875" ry="17.1875" style="stroke:#222222;stroke-width:1.5625;"/><ellipse cx="247.6013" cy="1258.873" fill="#222222" rx="9.375" ry="9.375" style="stroke:#222222;stroke-width:1.5625;"/><line style="stroke:#000000;stroke-width:2.3438;" x1="23.4375" x2="23.4375" y1="78.1906" y2="1276.0605"/><rect fill="#F1F1F1" height="53.0762" rx="19.5313" ry="19.5313" style="stroke:#181818;stroke-width:0.7813;" width="265.4327" x="478.3226" y="265.5685"/><text fill="#000000" font-family="sans-serif" font-size="18.75" lengthAdjust="spacing" textLength="234.1827" x="493.9476" y="298.5977">Ticket ingresa al sistema</text><line style="stroke:#000000;stroke-width:2.3438;" x1="468.6401" x2="468.6401" y1="78.1906" y2="1276.0605"/><path d="M1311.6302,344.9753 L1311.6302,370.1828 L1280.3802,376.4328 L1311.6302,382.6828 L1311.6302,407.8903 A0,0 0 0 0 1311.6302,407.8903 L1731.9572,407.8903 A0,0 0 0 0 1731.9572,407.8903 L1731.9572,360.6003 L1716.3322,344.9753 L1311.6302,344.9753 A0,0 0 0 0 1311.6302,344.9753" fill="#FEFFDD" style="stroke:#181818;stroke-width:0.7813;"/><path d="M1716.3322,344.9753 L1716.3322,360.6003 L1731.9572,360.6003 L1716.3322,344.9753" fill="#FEFFDD" style="stroke:#181818;stroke-width:0.7813;"/><text fill="#000000" font-family="sans-serif" font-size="20.3125" lengthAdjust="spacing" textLength="353.5843" x="1321.0052" y="371.6423">La priorizaci&#243;n no siempre se basa</text><text fill="#000000" font-family="sans-serif" font-size="20.3125" lengthAdjust="spacing" textLength="387.5145" x="1321.0052" y="395.2873">en matriz formal de Impacto/Urgencia</text><rect fill="#F1F1F1" height="53.0762" rx="19.5313" ry="19.5313" style="stroke:#181818;stroke-width:0.7813;" width="453.8025" x="826.5778" y="349.8947"/><text fill="#000000" font-family="sans-serif" font-size="18.75" lengthAdjust="spacing" textLength="422.5525" x="842.2028" y="382.9239">Asignaci&#243;n seg&#250;n disponibilidad del personal</text><rect fill="#F1F1F1" height="53.0762" rx="19.5313" ry="19.5313" style="stroke:#181818;stroke-width:0.7813;" width="254.538" x="926.21" y="439.1403"/><text fill="#000000" font-family="sans-serif" font-size="18.75" lengthAdjust="spacing" textLength="223.288" x="941.835" y="472.1695">Revisi&#243;n inicial del caso</text><polygon fill="#F1F1F1" points="884.3903,523.4665,1222.5677,523.4665,1241.3177,542.2165,1222.5677,560.9665,884.3903,560.9665,865.6403,542.2165,884.3903,523.4665" style="stroke:#181818;stroke-width:0.7813;"/><text fill="#000000" font-family="sans-serif" font-size="17.1875" lengthAdjust="spacing" textLength="338.1775" x="884.3903" y="548.1667">&#191;Se puede resolver en Mesa de Ayuda?</text><text fill="#000000" font-family="sans-serif" font-size="17.1875" lengthAdjust="spacing" textLength="15.6853" x="849.955" y="538.163">S&#237;</text><text fill="#000000" font-family="sans-serif" font-size="17.1875" lengthAdjust="spacing" textLength="23.3727" x="1241.3177" y="538.163">No</text><rect fill="#F1F1F1" height="53.0762" rx="19.5313" ry="19.5313" style="stroke:#181818;stroke-width:0.7813;" width="180.6549" x="759.6878" y="576.5915"/><text fill="#000000" font-family="sans-serif" font-size="18.75" lengthAdjust="spacing" textLength="149.4049" x="775.3128" y="609.6207">Soluciona ticket</text><rect fill="#F1F1F1" height="53.0762" rx="19.5313" ry="19.5313" style="stroke:#181818;stroke-width:0.7813;" width="321.344" x="1096.2708" y="576.5915"/><text fill="#000000" font-family="sans-serif" font-size="18.75" lengthAdjust="spacing" textLength="290.094" x="1111.8958" y="609.6207">Escala al &#225;rea correspondiente</text><polygon fill="#F1F1F1" points="1053.479,639.0427,1072.229,657.7927,1053.479,676.5427,1034.729,657.7927,1053.479,639.0427" style="stroke:#181818;stroke-width:0.7813;"/><line style="stroke:#000000;stroke-width:2.3438;" x1="750.3128" x2="750.3128" y1="78.1906" y2="1276.0605"/><rect fill="#F1F1F1" height="53.0762" rx="19.5313" ry="19.5313" style="stroke:#181818;stroke-width:0.7813;" width="175.1984" x="2131.5872" y="707.7927"/><text fill="#000000" font-family="sans-serif" font-size="18.75" lengthAdjust="spacing" textLength="143.9484" x="2147.2122" y="740.8218">Atiende el caso</text><path d="M1747.5822,776.4938 L1747.5822,839.4089 L2114.0038,839.4089 L2114.0038,792.1188 L2098.3788,776.4938 L1747.5822,776.4938" fill="#FEFFDD" style="stroke:#181818;stroke-width:0.7813;"/><path d="M2098.3788,776.4938 L2098.3788,792.1188 L2114.0038,792.1188 L2098.3788,776.4938" fill="#FEFFDD" style="stroke:#181818;stroke-width:0.7813;"/><text fill="#000000" font-family="sans-serif" font-size="20.3125" lengthAdjust="spacing" textLength="333.609" x="1756.9572" y="803.1609">No siempre se adjunta evidencia</text><text fill="#000000" font-family="sans-serif" font-size="20.3125" lengthAdjust="spacing" textLength="136.3358" x="1756.9572" y="826.8059">de resoluci&#243;n</text><rect fill="#F1F1F1" height="53.0762" rx="19.5313" ry="19.5313" style="stroke:#181818;stroke-width:0.7813;" width="304.4067" x="2066.983" y="915.0375"/><text fill="#000000" font-family="sans-serif" font-size="18.75" lengthAdjust="spacing" textLength="273.1567" x="2082.608" y="948.0667">Adjunta evidencia de gesti&#243;n</text><polygon fill="#F1F1F1" points="2132.7538,839.4089,2305.619,839.4089,2324.369,858.1589,2305.619,876.9089,2132.7538,876.9089,2114.0038,858.1589,2132.7538,839.4089" style="stroke:#181818;stroke-width:0.7813;"/><text fill="#000000" font-family="sans-serif" font-size="17.1875" lengthAdjust="spacing" textLength="15.6853" x="2225.4364" y="892.8627">S&#237;</text><text fill="#000000" font-family="sans-serif" font-size="17.1875" lengthAdjust="spacing" textLength="172.8653" x="2132.7538" y="864.109">&#191;Adjunta evidencia?</text><text fill="#000000" font-family="sans-serif" font-size="17.1875" lengthAdjust="spacing" textLength="23.3727" x="2324.369" y="854.1054">No</text><polygon fill="#F1F1F1" points="2219.1864,999.3637,2237.9364,1018.1137,2219.1864,1036.8637,2200.4364,1018.1137,2219.1864,999.3637" style="stroke:#181818;stroke-width:0.7813;"/><path d="M2391.8503,1063.1943 L2391.8503,1088.4018 L2360.6003,1094.6518 L2391.8503,1100.9018 L2391.8503,1126.1093 A0,0 0 0 0 2391.8503,1126.1093 L2724.9962,1126.1093 A0,0 0 0 0 2724.9962,1126.1093 L2724.9962,1078.8193 L2709.3712,1063.1943 L2391.8503,1063.1943 A0,0 0 0 0 2391.8503,1063.1943" fill="#FEFFDD" style="stroke:#181818;stroke-width:0.7813;"/><path d="M2709.3712,1063.1943 L2709.3712,1078.8193 L2724.9962,1078.8193 L2709.3712,1063.1943" fill="#FEFFDD" style="stroke:#181818;stroke-width:0.7813;"/><text fill="#000000" font-family="sans-serif" font-size="20.3125" lengthAdjust="spacing" textLength="244.8608" x="2401.2253" y="1089.8613">No existe control formal</text><text fill="#000000" font-family="sans-serif" font-size="20.3125" lengthAdjust="spacing" textLength="300.3334" x="2401.2253" y="1113.5063">de validaci&#243;n antes del cierre</text><rect fill="#F1F1F1" height="53.0762" rx="19.5313" ry="19.5313" style="stroke:#181818;stroke-width:0.7813;" width="282.8278" x="2077.7725" y="1068.1137"/><text fill="#000000" font-family="sans-serif" font-size="18.75" lengthAdjust="spacing" textLength="251.5778" x="2093.3975" y="1101.1429">Procede al cierre del ticket</text><line style="stroke:#000000;stroke-width:2.3438;" x1="1739.7697" x2="1739.7697" y1="78.1906" y2="1276.0605"/><line style="stroke:#000000;stroke-width:2.3438;" x1="2732.8087" x2="2732.8087" y1="78.1906" y2="1276.0605"/><line style="stroke:#181818;stroke-width:1.5625;" x1="247.6013" x2="247.6013" y1="149.9924" y2="181.2424"/><polygon fill="#181818" points="241.3513,165.6174,247.6013,181.2424,253.8513,165.6174,247.6013,171.8674" style="stroke:#181818;stroke-width:1.5625;"/><line style="stroke:#181818;stroke-width:1.5625;" x1="247.6013" x2="247.6013" y1="1210.4355" y2="1241.6855"/><polygon fill="#181818" points="241.3513,1226.0605,247.6013,1241.6855,253.8513,1226.0605,247.6013,1232.3105" style="stroke:#181818;stroke-width:1.5625;"/><line style="stroke:#181818;stroke-width:1.5625;" x1="1053.479" x2="1053.479" y1="402.9709" y2="439.1403"/><polygon fill="#181818" points="1047.229,423.5153,1053.479,439.1403,1059.729,423.5153,1053.479,429.7653" style="stroke:#181818;stroke-width:1.5625;"/><line style="stroke:#181818;stroke-width:1.5625;" x1="865.6403" x2="850.0153" y1="542.2165" y2="542.2165"/><line style="stroke:#181818;stroke-width:1.5625;" x1="850.0153" x2="850.0153" y1="542.2165" y2="576.5915"/><polygon fill="#181818" points="843.7653,560.9665,850.0153,576.5915,856.2653,560.9665,850.0153,567.2165" style="stroke:#181818;stroke-width:1.5625;"/><line style="stroke:#181818;stroke-width:1.5625;" x1="1241.3177" x2="1256.9427" y1="542.2165" y2="542.2165"/><line style="stroke:#181818;stroke-width:1.5625;" x1="1256.9427" x2="1256.9427" y1="542.2165" y2="576.5915"/><polygon fill="#181818" points="1250.6927,560.9665,1256.9427,576.5915,1263.1927,560.9665,1256.9427,567.2165" style="stroke:#181818;stroke-width:1.5625;"/><line style="stroke:#181818;stroke-width:1.5625;" x1="850.0153" x2="850.0153" y1="629.6677" y2="657.7927"/><line style="stroke:#181818;stroke-width:1.5625;" x1="850.0153" x2="1034.729" y1="657.7927" y2="657.7927"/><polygon fill="#181818" points="1019.104,651.5427,1034.729,657.7927,1019.104,664.0427,1025.354,657.7927" style="stroke:#181818;stroke-width:1.5625;"/><line style="stroke:#181818;stroke-width:1.5625;" x1="1256.9427" x2="1256.9427" y1="629.6677" y2="657.7927"/><line style="stroke:#181818;stroke-width:1.5625;" x1="1256.9427" x2="1072.229" y1="657.7927" y2="657.7927"/><polygon fill="#181818" points="1087.854,651.5427,1072.229,657.7927,1087.854,664.0427,1081.604,657.7927" style="stroke:#181818;stroke-width:1.5625;"/><line style="stroke:#181818;stroke-width:1.5625;" x1="1053.479" x2="1053.479" y1="492.2165" y2="523.4665"/><polygon fill="#181818" points="1047.229,507.8415,1053.479,523.4665,1059.729,507.8415,1053.479,514.0915" style="stroke:#181818;stroke-width:1.5625;"/><line style="stroke:#181818;stroke-width:1.5625;" x1="2219.1864" x2="2219.1864" y1="876.9089" y2="915.0375"/><polygon fill="#181818" points="2212.9364,899.4125,2219.1864,915.0375,2225.4364,899.4125,2219.1864,905.6625" style="stroke:#181818;stroke-width:1.5625;"/><line style="stroke:#181818;stroke-width:1.5625;" x1="2324.369" x2="2387.0148" y1="858.1589" y2="858.1589"/><polygon fill="#181818" points="2380.7648,925.9506,2387.0148,941.5756,2393.2648,925.9506,2387.0148,932.2006" style="stroke:#181818;stroke-width:1.5625;"/><line style="stroke:#181818;stroke-width:1.5625;" x1="2387.0148" x2="2387.0148" y1="858.1589" y2="1018.1137"/><line style="stroke:#181818;stroke-width:1.5625;" x1="2387.0148" x2="2237.9364" y1="1018.1137" y2="1018.1137"/><polygon fill="#181818" points="2253.5614,1011.8637,2237.9364,1018.1137,2253.5614,1024.3637,2247.3114,1018.1137" style="stroke:#181818;stroke-width:1.5625;"/><line style="stroke:#181818;stroke-width:1.5625;" x1="2219.1864" x2="2219.1864" y1="968.1137" y2="999.3637"/><polygon fill="#181818" points="2212.9364,983.7387,2219.1864,999.3637,2225.4364,983.7387,2219.1864,989.9887" style="stroke:#181818;stroke-width:1.5625;"/><line style="stroke:#181818;stroke-width:1.5625;" x1="2219.1864" x2="2219.1864" y1="760.8688" y2="839.4089"/><polygon fill="#181818" points="2212.9364,823.7839,2219.1864,839.4089,2225.4364,823.7839,2219.1864,830.0339" style="stroke:#181818;stroke-width:1.5625;"/><line style="stroke:#181818;stroke-width:1.5625;" x1="2219.1864" x2="2219.1864" y1="1036.8637" y2="1068.1137"/><polygon fill="#181818" points="2212.9364,1052.4887,2219.1864,1068.1137,2225.4364,1052.4887,2219.1864,1058.7387" style="stroke:#181818;stroke-width:1.5625;"/><line style="stroke:#181818;stroke-width:1.5625;" x1="247.6013" x2="247.6013" y1="234.3185" y2="242.131"/><line style="stroke:#181818;stroke-width:1.5625;" x1="247.6013" x2="611.039" y1="242.131" y2="242.131"/><line style="stroke:#181818;stroke-width:1.5625;" x1="611.039" x2="611.039" y1="242.131" y2="265.5685"/><polygon fill="#181818" points="604.789,249.9435,611.039,265.5685,617.289,249.9435,611.039,256.1935" style="stroke:#181818;stroke-width:1.5625;"/><line style="stroke:#181818;stroke-width:1.5625;" x1="611.039" x2="611.039" y1="318.6447" y2="326.4572"/><line style="stroke:#181818;stroke-width:1.5625;" x1="611.039" x2="1053.479" y1="326.4572" y2="326.4572"/><line style="stroke:#181818;stroke-width:1.5625;" x1="1053.479" x2="1053.479" y1="326.4572" y2="349.8947"/><polygon fill="#181818" points="1047.229,334.2697,1053.479,349.8947,1059.729,334.2697,1053.479,340.5197" style="stroke:#181818;stroke-width:1.5625;"/><line style="stroke:#181818;stroke-width:1.5625;" x1="1053.479" x2="1053.479" y1="676.5427" y2="684.3552"/><line style="stroke:#181818;stroke-width:1.5625;" x1="1053.479" x2="2219.1864" y1="684.3552" y2="684.3552"/><line style="stroke:#181818;stroke-width:1.5625;" x1="2219.1864" x2="2219.1864" y1="684.3552" y2="707.7927"/><polygon fill="#181818" points="2212.9364,692.1677,2219.1864,707.7927,2225.4364,692.1677,2219.1864,698.4177" style="stroke:#181818;stroke-width:1.5625;"/><line style="stroke:#181818;stroke-width:1.5625;" x1="2219.1864" x2="2219.1864" y1="1121.1899" y2="1133.9218"/><line style="stroke:#181818;stroke-width:1.5625;" x1="2219.1864" x2="247.6013" y1="1133.9218" y2="1133.9218"/><line style="stroke:#181818;stroke-width:1.5625;" x1="247.6013" x2="247.6013" y1="1133.9218" y2="1157.3593"/><polygon fill="#181818" points="241.3513,1141.7343,247.6013,1157.3593,253.8513,1141.7343,247.6013,1147.9843" style="stroke:#181818;stroke-width:1.5625;"/><text fill="#000000" font-family="sans-serif" font-size="28.125" lengthAdjust="spacing" textLength="225.1648" x="133.4564" y="104.2969">Usuario Externo</text><text fill="#000000" font-family="sans-serif" font-size="28.125" lengthAdjust="spacing" textLength="266.0477" x="476.4526" y="104.2969">Sistema de Tickets</text><text fill="#000000" font-family="sans-serif" font-size="28.125" lengthAdjust="spacing" textLength="215.2908" x="1137.3959" y="104.2969">Mesa de Ayuda</text><text fill="#000000" font-family="sans-serif" font-size="28.125" lengthAdjust="spacing" textLength="253.5233" x="2109.5276" y="104.2969">&#193;rea Responsable</text><?plantuml-src PLEnRXin3Dtr5HoT8MWxTB67maCA16Y38jTy02tHPoOwIP1uHb9uwQVq0pfrwrAWzsEbxiw57My7yl6HxpsTi7Y2Zxv_ZB1khcyRk8OcUhOilQC2Dyz2EM0nfZnnI9Yn0y-1v2KHn2oxUD9mYU7T-xV671vAZvdZF1uFfWXcCSjxQhb8HYZ77K01aaV1RSmTWYCGjayaPQKqZO9fgdwTgWUpdBw0Gvkf8A27Ci7gnETQKlZwfNUeu7NXDg3buLU0GktmEu3ZacBW3Njsw1Ji8L4kCQ1NXX2587Ex4_C98Qc8pDzcWX1r5NKfatB11WiQlRv3KGYCz_kw-xPBQ2M-USWj1SiLvA3occh0dij8na4D60SyM2nHT_CM5d__D0If9-LHUT7lALUBpdHzk0BPQN7H33-l3C1I4-ijguBPl9KXhnSkxkBOlYaM_UZKy2CJWerPkTK4nnI4LlL0tgfxm_VQlXzx1JUUgeEY8Dty-iorU-o38AWWDygykEe2KGMqLAJgFp_nn7M0kpERyJMB8excz6CkMlZlyAp4BB_aQAk9AjeogTxHwACzfp7hEdgkBqXz2PAZdwCqEht7-aYcz56jAbDS8-59h9VlNOEslA7QvotRcK8PfzcL_X0n_GC0?></g></svg>